<svg xmlns="http://www.w3.org/2000/svg" viewBox="0 0 500 500" fill="none">
  <path d="M404.9 180c-1.2-8.5-4.1-16.8-8.5-24.3-4.5-7.5-10.3-14.2-17.2-19.8-13.9-11.2-31.6-17.3-49.7-17.3h-5.1c-6.6-18.3-19.1-34.1-35.7-44.9-16.6-10.8-36.2-15.7-55.6-13.6-19.4 2-37.4 10.6-51.3 24.5-13.9 13.9-22.5 31.9-24.5 51.3-17.7 2.2-34.1 10.7-46.4 24.1-12.3 13.4-19.5 30.6-20.3 48.7-0.8 18.1 4.9 35.9 16.1 50.2 11.2 14.3 27 24.4 44.8 28.6h257c18.8-4.2 35.3-15.2 46.3-30.7 11.1-15.5 15.4-34.5 12.1-53" fill="#e6e6e6"/>
  <rect x="190" y="165" width="120" height="170" rx="10" stroke="#dc3545" stroke-width="16" stroke-miterlimit="10"/>
  <path d="M215 165v-30c0-19.3 15.7-35 35-35s35 15.7 35 35v30" stroke="#dc3545" stroke-width="16" stroke-linecap="round" stroke-linejoin="round"/>
  <path d="M250 225v50" stroke="#dc3545" stroke-width="16" stroke-linecap="round" stroke-linejoin="round"/>
  <path d="M144.8 358.2h210.5" stroke="#dc3545" stroke-width="8" stroke-linecap="round" stroke-linejoin="round" stroke-miterlimit="10"/>
  <path d="M135.7 383.1h228.6" stroke="#dc3545" stroke-width="6" stroke-linecap="round" stroke-linejoin="round" stroke-miterlimit="10"/>
  <path d="M126.7 407.9h246.7" stroke="#dc3545" stroke-width="4" stroke-linecap="round" stroke-linejoin="round" stroke-miterlimit="10"/>
</svg>
